<svg width="108" height="107" viewBox="0 0 108 107" fill="none" xmlns="http://www.w3.org/2000/svg">
<g clip-path="url(#clip0)">
<path d="M34.0137 46.8015V44.9763L39.7501 38.4753H34.6619V36.78H42.6555V38.3523L36.6733 45.113H42.8865V46.8015H34.0137Z" fill="#D3293C"/>
<path d="M66.063 43.4524L68.2066 43.261C68.3356 43.9218 68.5961 44.4071 68.9881 44.717C69.385 45.0269 69.9184 45.1819 70.5883 45.1819C71.2979 45.1819 71.8313 45.0451 72.1885 44.7717C72.5508 44.4937 72.7319 44.1701 72.7319 43.801C72.7319 43.564 72.655 43.3635 72.5012 43.1994C72.3523 43.0308 72.0893 42.885 71.7122 42.7619C71.4542 42.6799 70.8662 42.5341 69.9482 42.3244C68.7673 42.0556 67.9386 41.7251 67.4623 41.3332C66.7924 40.7818 66.4575 40.1096 66.4575 39.3166C66.4575 38.8062 66.6138 38.33 66.9264 37.8879C67.2439 37.4413 67.698 37.1018 68.2884 36.8694C68.8839 36.6369 69.6009 36.5207 70.4395 36.5207C71.809 36.5207 72.8386 36.7964 73.5283 37.3479C74.223 37.8993 74.5877 38.6353 74.6224 39.5559L72.4193 39.6447C72.325 39.1298 72.1216 38.7606 71.809 38.5373C71.5013 38.3095 71.0374 38.1955 70.4171 38.1955C69.777 38.1955 69.2759 38.3163 68.9136 38.5578C68.6804 38.7128 68.5638 38.9201 68.5638 39.1799C68.5638 39.4169 68.673 39.6197 68.8913 39.7883C69.1692 40.0025 69.844 40.2258 70.9158 40.4582C71.9876 40.6906 72.779 40.9322 73.2901 41.1828C73.8062 41.4289 74.2081 41.7684 74.4959 42.2014C74.7886 42.6298 74.935 43.1607 74.935 43.7942C74.935 44.3684 74.7613 44.9061 74.414 45.4074C74.0667 45.9087 73.5754 46.2824 72.9403 46.5285C72.3052 46.7701 71.5137 46.8908 70.566 46.8908C69.1866 46.8908 68.1272 46.5992 67.3878 46.0158C66.6485 45.4279 66.2069 44.5735 66.063 43.4524Z" fill="#D3293C"/>
<path d="M35.1154 73.5589V63.5374H42.9584V65.2327H37.2511V67.4544H42.5616V69.1429H37.2511V71.8704H43.1605V73.5589H35.1154Z" fill="#D3293C"/>
<path fill-rule="evenodd" clip-rule="evenodd" d="M60.3346 16.8965C65.9653 17.8563 71.205 20.083 75.7017 23.3079L78.2824 20.6973L87.1586 29.6041L84.5779 32.2148C87.7843 36.7066 90.0131 41.9662 90.9515 47.6482H94.588V60.2406H90.9515C89.974 65.9226 87.7452 71.1439 84.5388 75.6357L87.1195 78.2079L78.2434 87.1148L75.6626 84.5042C71.1659 87.6907 65.9262 89.9174 60.2955 90.8772V94.5244H47.7046V90.8388C42.0739 89.879 36.8342 87.6139 32.3766 84.4274L29.7567 87.038L20.8806 78.1311L23.5004 75.4821C20.3331 70.9903 18.1043 65.7306 17.1268 60.0871H13.4512V47.4946H17.1659C18.1434 41.8511 20.3722 36.6298 23.5395 32.138L20.9197 29.5273L29.7958 20.6205L32.4157 23.2695C36.9124 20.083 42.113 17.8179 47.7828 16.8581V13.1725H60.3737V16.8965H60.3346ZM54.0391 22.8856C36.9906 22.8856 23.0703 36.8218 23.0703 53.906C23.0703 70.9903 36.9906 84.9265 54 84.9265C71.0486 84.9265 84.9298 70.9903 84.9298 53.906C84.9689 36.8218 71.0877 22.8856 54.0391 22.8856Z" fill="#5892C9"/>
<path d="M73.1599 61.6611L63.7754 74.7527" stroke="#E31E24" stroke-width="1.5" stroke-miterlimit="22.9256"/>
<path d="M64.675 69.5698L68.4288 72.334" stroke="#E31E24" stroke-width="1.5" stroke-miterlimit="22.9256"/>
<path fill-rule="evenodd" clip-rule="evenodd" d="M68.3113 63.312L66.3562 71.1439L73.3946 67.036L68.3113 63.312Z" fill="#D3293C"/>
<path fill-rule="evenodd" clip-rule="evenodd" d="M74.0985 0.618439L74.2549 6.56914L84.3823 2.03893L48.3693 53.0998H66.9428L35.8957 95.4842L38.4765 97.0966L27.4888 106.656L30.9689 92.4896L33.315 94.0253L56.5025 57.5148H40.9399L74.0985 0.618439Z" fill="#D3293C"/>
</g>
<defs>
<clipPath id="clip0">
<rect y="0.618439" width="108" height="106.038" rx="8" fill="white"/>
</clipPath>
</defs>
</svg>
