<svg width="14" height="17" viewBox="0 0 14 17" fill="none" xmlns="http://www.w3.org/2000/svg">
<path d="M11.5 6.75C12.1094 6.75 12.6367 6.97266 13.082 7.41797C13.5273 7.86328 13.75 8.39062 13.75 9V10.1602C13.75 10.5586 13.5977 10.9102 13.293 11.2148C13.0117 11.4961 12.6719 11.6367 12.2734 11.6367C11.875 11.6367 11.5352 11.4961 11.2539 11.2148L9.63672 9.59766L8.01953 11.2148C7.73828 11.4961 7.38672 11.6367 6.96484 11.6367C6.56641 11.6367 6.22656 11.4961 5.94531 11.2148L4.36328 9.59766L2.74609 11.2148C2.46484 11.4961 2.125 11.6367 1.72656 11.6367C1.32812 11.6367 0.976562 11.4961 0.671875 11.2148C0.390625 10.9102 0.25 10.5586 0.25 10.1602V9C0.25 8.39062 0.472656 7.86328 0.917969 7.41797C1.36328 6.97266 1.89062 6.75 2.5 6.75H6.26172V5.23828H7.73828V6.75H11.5ZM10.4453 11.9883C10.9609 12.5039 11.5703 12.7617 12.2734 12.7617C12.7891 12.7617 13.2812 12.6094 13.75 12.3047V15.75C13.75 15.9609 13.6797 16.1367 13.5391 16.2773C13.3984 16.418 13.2227 16.4883 13.0117 16.4883H0.988281C0.777344 16.4883 0.601562 16.418 0.460938 16.2773C0.320312 16.1367 0.25 15.9609 0.25 15.75V12.3047C0.695312 12.6094 1.1875 12.7617 1.72656 12.7617C2.42969 12.7617 3.03906 12.5039 3.55469 11.9883L4.36328 11.1797L5.17188 11.9883C5.66406 12.4805 6.27344 12.7266 7 12.7266C7.72656 12.7266 8.33594 12.4805 8.82812 11.9883L9.63672 11.1797L10.4453 11.9883ZM7 4.5C6.60156 4.5 6.25 4.34766 5.94531 4.04297C5.64062 3.73828 5.48828 3.38672 5.48828 2.98828C5.48828 2.73047 5.57031 2.47266 5.73438 2.21484L7 0L8.26562 2.21484C8.42969 2.47266 8.51172 2.73047 8.51172 2.98828C8.51172 3.41016 8.35938 3.77344 8.05469 4.07812C7.77344 4.35938 7.42188 4.5 7 4.5Z" fill="white"/>
</svg>
