<svg width="12" height="16" viewBox="0 0 12 16" fill="none" xmlns="http://www.w3.org/2000/svg">
<path d="M4.66406 7.08594C5.03906 7.4375 5.48438 7.61328 6 7.61328C6.51562 7.61328 6.94922 7.4375 7.30078 7.08594C7.67578 6.71094 7.86328 6.26563 7.86328 5.75C7.86328 5.23437 7.67578 4.80078 7.30078 4.44922C6.94922 4.07422 6.51562 3.88672 6 3.88672C5.48438 3.88672 5.03906 4.07422 4.66406 4.44922C4.3125 4.80078 4.13672 5.23437 4.13672 5.75C4.13672 6.26563 4.3125 6.71094 4.66406 7.08594ZM2.27344 2.05859C3.30469 1.02734 4.54688 0.511719 6 0.511719C7.45312 0.511719 8.68359 1.02734 9.69141 2.05859C10.7227 3.06641 11.2383 4.29688 11.2383 5.75C11.2383 6.47656 11.0508 7.30859 10.6758 8.24609C10.3242 9.18359 9.89062 10.0625 9.375 10.8828C8.85938 11.7031 8.34375 12.4766 7.82812 13.2031C7.33594 13.9062 6.91406 14.4688 6.5625 14.8906L6 15.4883C5.85938 15.3242 5.67188 15.1133 5.4375 14.8555C5.20312 14.5742 4.78125 14.0352 4.17188 13.2383C3.5625 12.418 3.02344 11.6328 2.55469 10.8828C2.10938 10.1094 1.69922 9.24219 1.32422 8.28125C0.949219 7.32031 0.761719 6.47656 0.761719 5.75C0.761719 4.29688 1.26562 3.06641 2.27344 2.05859Z" fill="white"/>
</svg>
