<?xml version="1.0" encoding="utf-8"?>
<!-- Generator: Adobe Illustrator 24.0.2, SVG Export Plug-In . SVG Version: 6.00 Build 0)  -->
<svg version="1.1" id="Layer_1" xmlns="http://www.w3.org/2000/svg" xmlns:xlink="http://www.w3.org/1999/xlink" x="0px" y="0px"
	 viewBox="0 0 40.2 36" style="enable-background:new 0 0 40.2 36;" xml:space="preserve">
<style type="text/css">
	.st0{fill:#EEEEEE;}
	.st1{fill:#DC143C;}
</style>
<path class="st0" d="M34.2,5h-28c-2.2,0-4,1.8-4,4v9h36V9C38.2,6.8,36.4,5,34.2,5z"/>
<path class="st1" d="M2.2,27c0,2.2,1.8,4,4,4h28c2.2,0,4-1.8,4-4v-9h-36C2.2,18,2.2,27,2.2,27z"/>
<g>
	<path d="M34.2,5c2.2,0,4,1.8,4,4v9v9c0,2.2-1.8,4-4,4h-28c-2.2,0-4-1.8-4-4v-9V9c0-2.2,1.8-4,4-4H34.2 M34.2,3h-28
		c-3.3,0-6,2.7-6,6v9v9c0,3.3,2.7,6,6,6h28c3.3,0,6-2.7,6-6v-9V9C40.2,5.7,37.5,3,34.2,3L34.2,3z"/>
</g>
</svg>
